PathFileType	4	(X/Y/Z)	Kaydara	
DataRate	CameraRate	NumFrames	NumMarkers	Units	OrigDataRate	OrigDataStartFrame	OrigNumFrames	
60.00	60.00	4	74	mm	60.00	850	204	
Frame#	Time	Z_lasi			Z_rasi			Z_rpsi			Z_lpsi			Z_fneck			Z_bneck			Z_fhead			Z_rhead			Z_lhead			Z_rshld			Z_relbtop			Z_relbext			Z_relblow			Z_rwrext			Z_rwrtop			Z_rwrlow			Z_lshld			Z_lelbext			Z_lelblow			Z_lelbtop			Z_lwrext			Z_lwrtop			Z_lwrlow			Z_rtopleg			Z_ltopleg			Z_rkneefr			Z_rkneebk			Z_rkneeis			Z_lkneefr			Z_lknssbk			Z_lkneeis			Z_rankfr			Z_rankis			Z_rankbk			Z_lankfr			Z_lankbk			Z_lankis			N_lasi			N_rasi			N_rpsi			N_lpsi			N_fneck			N_bneck			N_fhead			N_rhead			N_lhead			N_rshld			N_relbtop			N_relbext			N_relblow			N_rwrext			N_rwrtop			N_rwrlow			N_lshld			N_lelbext			N_lelblow			N_lelbtop			N_lwrext			N_lwrtop			N_lwrlow			N_rtopleg			N_ltopleg			N_rkneefr			N_rkneebk			N_rkneeis			N_lkneefr			N_lknssbk			N_lkneeis			N_rankfr			N_rankis			N_rankbk			N_lankfr			N_lankbk			N_lankis			
		X1	Y1	Z1	X2	Y2	Z2	X3	Y3	Z3	X4	Y4	Z4	X5	Y5	Z5	X6	Y6	Z6	X7	Y7	Z7	X8	Y8	Z8	X9	Y9	Z9	X10	Y10	Z10	X11	Y11	Z11	X12	Y12	Z12	X13	Y13	Z13	X14	Y14	Z14	X15	Y15	Z15	X16	Y16	Z16	X17	Y17	Z17	X18	Y18	Z18	X19	Y19	Z19	X20	Y20	Z20	X21	Y21	Z21	X22	Y22	Z22	X23	Y23	Z23	X24	Y24	Z24	X25	Y25	Z25	X26	Y26	Z26	X27	Y27	Z27	X28	Y28	Z28	X29	Y29	Z29	X30	Y30	Z30	X31	Y31	Z31	X32	Y32	Z32	X33	Y33	Z33	X34	Y34	Z34	X35	Y35	Z35	X36	Y36	Z36	X37	Y37	Z37	X38	Y38	Z38	X39	Y39	Z39	X40	Y40	Z40	X41	Y41	Z41	X42	Y42	Z42	X43	Y43	Z43	X44	Y44	Z44	X45	Y45	Z45	X46	Y46	Z46	X47	Y47	Z47	X48	Y48	Z48	X49	Y49	Z49	X50	Y50	Z50	X51	Y51	Z51	X52	Y52	Z52	X53	Y53	Z53	X54	Y54	Z54	X55	Y55	Z55	X56	Y56	Z56	X57	Y57	Z57	X58	Y58	Z58	X59	Y59	Z59	X60	Y60	Z60	X61	Y61	Z61	X62	Y62	Z62	X63	Y63	Z63	X64	Y64	Z64	X65	Y65	Z65	X66	Y66	Z66	X67	Y67	Z67	X68	Y68	Z68	X69	Y69	Z69	X70	Y70	Z70	X71	Y71	Z71	X72	Y72	Z72	X73	Y73	Z73	X74	Y74	Z74	

154	14.150	-198.78592	966.50482	696.55640	-55.28583	981.33072	889.70596	-231.57497	1041.77818	980.13542	-342.41257	1023.33366	824.25636	-138.55000	1417.68204	704.36234	-187.21197	1497.56027	782.09305	-69.93045	1540.39917	589.84352	-71.16582	1606.34552	769.57924	-191.32603	1604.97375	717.80777	-36.65597	1379.09912	961.51878	-31.56080	1086.71326	1051.16348	-69.16857	1070.08133	993.15842	26.63808	1106.38817	993.92334	54.60557	840.81970	1008.47237	92.73748	851.78856	986.18752	71.77087	860.41489	944.86656	-328.09853	1372.30743	636.47850	-343.67283	1053.04733	716.73218	-370.40077	1069.56589	626.99699	-413.30418	1052.47910	695.08713	-387.71385	837.57217	630.44933	-360.58002	844.50661	597.64790	-322.63851	843.80913	624.51500	-117.11091	887.87941	1011.14517	-284.75582	889.95621	698.56293	-189.02744	418.12279	987.67448	-224.08697	465.54817	1057.34459	-272.41810	452.29061	949.50691	-73.40317	428.04131	656.11526	-159.27366	418.81027	658.56766	-101.06101	418.83156	762.19566	-284.04484	174.41418	1048.82767	-361.10397	188.85496	1026.78726	-342.22538	188.96130	1095.54649	-73.78168	163.70443	618.67451	-53.07508	150.68555	681.01883	-3.03608	188.93917	640.79041	-763.03932	1038.86208	-864.32846	-805.73601	1038.71643	-1088.18115	-560.86781	1107.13463	-1115.38559	-550.84656	1099.60670	-873.66463	-802.30324	1520.73517	-1000.35942	-671.48781	1587.25372	-1008.22151	-891.05797	1739.20944	-998.67317	-753.12546	1704.70886	-1106.71410	-725.77675	1733.99399	-953.69415	-697.66251	1482.55524	-1216.45447	-589.47124	1200.36545	-1300.18600	-585.28938	1182.21939	-1218.55652	-661.10077	1201.13159	-1275.07545	-727.99881	976.25603	-1316.62491	-771.68900	1002.62550	-1324.44000	-785.70221	1010.62630	-1280.05157	-712.04590	1506.38412	-777.56332	-804.42245	1179.46877	-773.55766	-748.45261	1219.54773	-784.85168	-741.48636	1227.73483	-709.13193	-922.43263	1073.53455	-787.97104	-952.08984	1117.62390	-794.70490	-936.17043	1124.37149	-841.41037	-685.69374	922.16805	-1210.98305	-642.35062	906.10435	-805.52521	-884.92783	517.85877	-1157.88040	-772.38815	541.81358	-1181.87233	-803.08487	511.12015	-1076.87622	-657.33917	477.85957	-1008.26904	-588.54290	500.77648	-925.06058	-556.24763	514.33990	-1046.82129	-828.17490	213.61996	-1202.74048	-779.52744	213.04111	-1146.78635	-765.46005	214.55881	-1227.35008	-558.93822	165.32560	-1021.57074	-472.98901	192.85997	-1054.25804	-540.79998	190.38662	-1086.13449 
155	14.167	-186.55107	963.36433	683.91960	-40.08894	979.26559	875.33638	-215.48016	1038.96347	968.29781	-328.85021	1019.09241	814.86725	-130.05128	1414.07761	690.87685	-178.80157	1494.15466	768.27789	-62.30399	1537.18079	575.08083	-64.03667	1603.72910	754.51752	-184.27683	1601.15738	702.76794	-25.08037	1377.32193	946.15623	-17.95042	1085.15930	1035.86861	-55.94591	1068.02261	977.62726	39.92502	1104.97932	978.08960	69.02513	839.75266	994.70139	106.97390	850.51567	971.79802	85.50601	858.67088	930.59448	-320.16857	1367.26288	624.52839	-330.68356	1047.55676	705.48462	-358.63037	1063.62007	615.81333	-400.38506	1046.70166	684.57619	-376.26766	831.66954	620.51502	-349.44611	838.25722	587.30625	-311.20907	837.51015	613.86581	-101.98938	885.92880	999.26170	-270.45391	887.67784	687.27020	-176.74898	416.93344	979.90868	-210.45502	465.88707	1049.68369	-259.29924	452.53368	941.77574	-55.34564	423.89790	642.43401	-141.38872	415.70480	644.15771	-82.88488	418.42705	748.77892	-278.43256	175.64623	1046.55243	-354.77829	192.36370	1024.29359	-336.53236	193.30572	1093.45047	-63.43951	155.98273	617.09980	-42.91276	145.74262	679.77898	7.71755	180.16813	637.73415	-777.66739	1036.04805	-863.43765	-825.19203	1035.49423	-1087.39876	-580.80090	1104.02328	-1118.86452	-565.86098	1096.97327	-877.33185	-820.67650	1516.76910	-999.50218	-690.25200	1583.85971	-1010.19127	-910.38025	1735.02380	-996.68465	-773.79913	1701.21780	-1106.71478	-744.56078	1730.25452	-954.14467	-720.04417	1478.04886	-1217.30934	-611.55014	1196.83601	-1303.01788	-606.67408	1178.84445	-1221.08711	-682.74223	1197.48039	-1276.74530	-751.88873	973.64952	-1315.97214	-795.57381	1000.41656	-1322.44171	-808.24303	1008.34953	-1277.71820	-726.52718	1504.35379	-778.71864	-822.81403	1179.09241	-773.65860	-768.04382	1218.81256	-784.64134	-759.87808	1227.35863	-709.23294	-948.13225	1083.55110	-788.46603	-975.95612	1129.28940	-793.43956	-960.11894	1136.52657	-840.05363	-707.10297	918.56934	-1211.97182	-654.90395	903.98727	-806.96053	-910.13153	517.73083	-1153.06084	-796.63391	535.07847	-1180.78300	-825.55328	506.89457	-1074.31900	-665.09201	475.39215	-1008.32787	-596.00891	499.70623	-925.75607	-565.31155	513.88779	-1048.20374	-883.84705	211.47894	-1198.76244	-833.73444	206.50049	-1144.63928	-822.13600	206.73998	-1225.52864	-559.48708	164.80974	-1022.50824	-475.31567	194.05302	-1054.94560	-543.12168	190.33657	-1086.67847 
156	14.183	-173.70653	960.66544	670.05516	-24.80353	977.61871	859.96964	-199.71235	1036.31439	955.28656	-314.84993	1014.34837	804.19777	-122.20001	1411.09238	675.99884	-171.09524	1490.90103	753.86269	-55.33344	1534.71497	559.58752	-57.56967	1601.45767	739.21326	-177.54543	1597.99789	687.52396	-13.78195	1376.18378	930.38139	-4.79324	1084.24500	1020.50247	-42.48230	1066.93207	962.46811	52.81600	1104.01039	962.38602	83.02001	838.85529	980.21347	120.77767	849.60220	957.05269	99.00630	857.39792	915.72784	-312.83533	1362.58118	612.29954	-317.62453	1042.68204	693.35991	-347.15057	1058.17047	604.29066	-387.86499	1041.31470	673.64136	-364.53365	826.18942	610.01274	-338.05344	832.61650	576.46225	-300.08993	831.96838	602.78683	-86.79927	884.31450	986.12427	-254.92434	885.37537	673.80219	-161.59733	415.49622	971.16722	-194.13101	466.00357	1040.80826	-243.93244	452.78564	933.17688	-38.11781	419.18400	629.61788	-124.64392	412.86358	629.42352	-66.99592	417.68425	735.79224	-271.29726	177.36431	1043.35777	-346.78204	196.78562	1020.96848	-328.76865	197.96999	1090.10315	-54.92367	149.92995	615.96809	-35.82632	141.66113	679.23424	16.67641	172.28973	636.57799	-793.19748	1032.52357	-862.66212	-844.25781	1031.34727	-1085.99815	-601.08414	1100.29503	-1121.94283	-581.78547	1094.09698	-881.32645	-839.30260	1512.29324	-998.65532	-709.52568	1580.13168	-1011.89857	-930.15327	1730.17685	-994.47060	-795.08255	1697.62985	-1106.50543	-763.84850	1726.12701	-954.34578	-742.52121	1473.07236	-1218.05801	-633.87768	1192.68692	-1305.39474	-628.32188	1174.83620	-1223.00461	-704.66118	1193.18230	-1277.64412	-775.64636	970.29663	-1315.00183	-819.38675	997.27417	-1320.09933	-830.64201	1004.99397	-1274.87152	-741.91055	1501.43799	-779.73015	-840.78415	1177.84973	-773.85864	-787.21344	1217.21092	-784.53011	-777.84813	1226.11588	-709.43291	-972.45216	1091.71875	-788.00484	-998.35510	1138.91403	-791.78459	-982.68608	1146.24413	-838.30833	-728.16833	914.24881	-1212.77779	-668.33054	901.79108	-807.88979	-933.86421	516.80771	-1149.06639	-819.85435	528.79005	-1179.86099	-846.67313	503.18027	-1072.37206	-673.24547	472.83142	-1008.31635	-603.74783	498.71338	-926.43501	-574.76360	513.35629	-1049.28741	-938.04436	212.44425	-1193.09547	-887.57866	202.63853	-1140.06699	-877.80556	201.07941	-1221.20377	-561.03363	164.70125	-1022.74551	-477.82463	195.42398	-1055.46814	-545.73681	190.50484	-1086.91628 
157	14.200	-160.10551	958.38913	655.26230	-8.17821	976.68304	842.52426	-184.28339	1033.53653	940.93788	-300.52740	1009.68475	791.11099	-114.67829	1408.62259	660.90187	-163.52163	1488.01071	739.10660	-48.67540	1532.89139	544.29161	-51.13967	1599.67987	723.63472	-171.42748	1594.89166	672.00058	-2.53511	1375.16251	913.32619	8.22203	1083.73291	1004.96437	-29.60922	1066.12106	946.90567	65.48133	1103.47061	946.55045	96.46907	838.43636	965.50850	134.06561	849.05815	941.89308	111.91878	856.55647	900.88631	-306.00943	1358.08823	599.90162	-305.52959	1038.04138	681.25420	-336.46461	1053.19016	592.60357	-376.05145	1036.05385	662.43782	-352.43759	821.10016	598.95672	-326.86104	827.55745	565.19989	-288.23324	827.00142	590.89317	-70.96673	882.46422	971.11359	-239.44427	882.88261	658.70056	-144.00500	413.80974	961.86089	-175.48864	466.19396	1030.52551	-226.05576	452.15588	923.38425	-22.54930	414.31656	617.92358	-110.20786	411.03420	615.40535	-53.68394	416.13373	723.38211	-262.14939	179.73560	1039.77951	-336.56975	201.59452	1016.61125	-318.95535	203.45448	1085.93239	-45.04031	147.05992	609.01268	-28.03902	138.81006	672.96600	26.32408	168.02198	631.09131	-808.99261	1028.48495	-861.84189	-862.93137	1026.05492	-1083.81424	-621.51955	1096.04416	-1124.31381	-598.41652	1090.89783	-884.36935	-858.07465	1507.44965	-997.93167	-729.08279	1576.16425	-1013.44612	-950.27214	1724.76761	-991.62186	-817.03377	1693.82858	-1106.21498	-783.49236	1721.79062	-954.49234	-765.00778	1467.82944	-1218.61710	-656.49406	1187.94106	-1307.25540	-650.22247	1170.26077	-1224.49974	-726.79695	1188.34633	-1278.21411	-799.44305	966.36841	-1313.76160	-843.20099	993.47229	-1317.20245	-852.99026	1000.85770	-1271.76987	-757.77512	1498.05603	-780.58456	-858.69469	1175.83717	-773.78128	-806.32362	1214.83925	-784.14146	-795.75867	1224.10316	-709.35555	-995.29007	1097.87048	-786.73477	-1019.12415	1145.53513	-789.93370	-1003.76724	1153.38417	-836.13083	-749.13330	909.53545	-1213.10074	-682.44904	899.60373	-808.68942	-956.55609	515.46570	-1146.23886	-841.90521	523.11329	-1180.16708	-866.32042	498.70937	-1071.08727	-681.81107	470.29945	-1007.80281	-612.14081	497.67418	-926.80466	-584.69513	512.98138	-1050.15579	-989.70718	215.13741	-1185.57228	-939.72404	201.42673	-1132.80045	-931.26892	197.55243	-1214.46327	-562.72926	164.64487	-1022.89078	-480.54058	197.18212	-1055.94200	-548.34656	190.94496	-1087.19238 
